:FULLY-SPECIFIED
:FORCE-ALL-JOINTS-BE-3DOF
:DEGREES
17
root 7.71923 15.8572 -34.4564 7.36599 -3.46163 -5.55477
lfemur -40.7657 5.59015 -12.3161
ltibia 33.1812 0 0
lfoot -12.8223 10.0626 0
ltoes -12.1912 0 0
rfemur 4.81957 5.8644 30.5313
rtibia 11.6709 0 0
rfoot -5.95288 -0.31151 0
rtoes -17.1796 0 0
lowerback -6.36148 0.897066 2.52791
upperback -1.24143 0.897225 3.08025
thorax 2.2891 0.463592 1.85845
lowerneck -19.636 -4.84068 -12.5608
upperneck 15.013 -6.21393 15.8303
head 8.87377 -2.09192 6.74192
lclavicle 1.75452e-014 1.38508e-014 0
lhumerus -39.539 -5.70464 88.6831
lradius 26.6953 0 0
lwrist 5.15433 0 0
lhand -12.4134 -24.8953 0
lfingers 7.12502 0 0
lthumb 13.6586 4.63467 0
rclavicle 1.75452e-014 1.38508e-014 0
rhumerus -41.4703 19.1755 -88.6471
rradius 58.6737 0 0
rwrist -29.3731 0 0
rhand -31.6341 -28.3939 0
rfingers 7.12502 0 0
rthumb -4.89533 -58.3123 0
18
root 7.73506 15.8487 -34.3142 7.38177 -3.76016 -5.67271
lfemur -40.7704 5.53812 -12.0639
ltibia 32.5106 0 0
lfoot -12.71 10.1698 0
ltoes -12.2126 0 0
rfemur 5.73942 5.93551 30.5577
rtibia 10.8928 0 0
rfoot -6.32493 -0.330979 0
rtoes -18.2533 0 0
lowerback -6.49038 0.941295 2.62719
upperback -1.2241 0.941727 3.11295
thorax 2.37935 0.486565 1.84291
lowerneck -19.6971 -4.81984 -12.5123
upperneck 15.0963 -6.18786 15.762
head 8.90401 -2.08004 6.71515
lclavicle 1.82457e-014 1.37226e-014 0
lhumerus -39.7648 -5.87502 88.8349
lradius 26.6509 0 0
lwrist 5.01988 0 0
lhand -12.358 -25.0125 0
lfingers 7.12502 0 0
lthumb 13.712 4.51395 0
rclavicle 1.82457e-014 1.37226e-014 0
rhumerus -41.6392 19.283 -88.9311
rradius 58.8284 0 0
rwrist -29.4233 0 0
rhand -31.5362 -28.5591 0
rfingers 7.12502 0 0
rthumb -4.80075 -58.4797 0
19
root 7.75089 15.8402 -34.1719 7.39755 -4.05869 -5.79065
lfemur -40.7752 5.48609 -11.8117
ltibia 31.84 0 0
lfoot -12.5978 10.277 0
ltoes -12.234 0 0
rfemur 6.65927 6.00663 30.584
rtibia 10.1148 0 0
rfoot -6.69699 -0.350448 0
rtoes -19.327 0 0
lowerback -6.61928 0.985524 2.72647
upperback -1.20676 0.98623 3.14565
thorax 2.4696 0.509537 1.82738
lowerneck -19.7583 -4.799 -12.4637
upperneck 15.1796 -6.16179 15.6937
head 8.93425 -2.06817 6.68838
lclavicle 1.89463e-014 1.35943e-014 0
lhumerus -39.9906 -6.0454 88.9867
lradius 26.6065 0 0
lwrist 4.88543 0 0
lhand -12.3025 -25.1296 0
lfingers 7.12502 0 0
lthumb 13.7654 4.39323 0
rclavicle 1.89463e-014 1.35943e-014 0
rhumerus -41.808 19.3905 -89.2151
rradius 58.983 0 0
rwrist -29.4735 0 0
rhand -31.4382 -28.7243 0
rfingers 7.12502 0 0
rthumb -4.70616 -58.647 0
20
root 7.76672 15.8316 -34.0297 7.41332 -4.35722 -5.90859
lfemur -40.7799 5.43407 -11.5595
ltibia 31.1694 0 0
lfoot -12.4855 10.3843 0
ltoes -12.2554 0 0
rfemur 7.57912 6.07774 30.6103
rtibia 9.3367 0 0
rfoot -7.06904 -0.369918 0
rtoes -20.4007 0 0
lowerback -6.74818 1.02975 2.82575
upperback -1.18942 1.03073 3.17836
thorax 2.55985 0.532509 1.81184
lowerneck -19.8194 -4.77816 -12.4152
upperneck 15.263 -6.13572 15.6253
head 8.96449 -2.05629 6.66161
lclavicle 1.96468e-014 1.34661e-014 0
lhumerus -40.2163 -6.21578 89.1385
lradius 26.5621 0 0
lwrist 4.75098 0 0
lhand -12.2471 -25.2467 0
lfingers 7.12502 0 0
lthumb 13.8188 4.2725 0
rclavicle 1.96468e-014 1.34661e-014 0
rhumerus -41.9769 19.498 -89.4991
rradius 59.1377 0 0
rwrist -29.5238 0 0
rhand -31.3402 -28.8894 0
rfingers 7.12502 0 0
rthumb -4.61158 -58.8144 0
21
root 7.78256 15.8231 -33.8875 7.4291 -4.65575 -6.02653
lfemur -40.7847 5.38204 -11.3072
ltibia 30.4989 0 0
lfoot -12.3732 10.4915 0
ltoes -12.2768 0 0
rfemur 8.49896 6.14885 30.6367
rtibia 8.55864 0 0
rfoot -7.4411 -0.389387 0
rtoes -21.4745 0 0
lowerback -6.87707 1.07398 2.92503
upperback -1.17208 1.07523 3.21106
thorax 2.6501 0.555482 1.7963
lowerneck -19.8805 -4.75732 -12.3666
upperneck 15.3463 -6.10964 15.557
head 8.99473 -2.04442 6.63483
lclavicle 2.03474e-014 1.33378e-014 0
lhumerus -40.4421 -6.38616 89.2903
lradius 26.5177 0 0
lwrist 4.61652 0 0
lhand -12.1917 -25.3639 0
lfingers 7.12502 0 0
lthumb 13.8723 4.15178 0
rclavicle 2.03474e-014 1.33378e-014 0
rhumerus -42.1457 19.6056 -89.7831
rradius 59.2924 0 0
rwrist -29.574 0 0
rhand -31.2423 -29.0546 0
rfingers 7.12502 0 0
rthumb -4.51699 -58.9818 0
22
root 7.79839 15.8146 -33.7452 7.44488 -4.95428 -6.14447
lfemur -40.7894 5.33001 -11.055
ltibia 29.8283 0 0
lfoot -12.261 10.5988 0
ltoes -12.2982 0 0
rfemur 9.41881 6.21997 30.663
rtibia 7.78058 0 0
rfoot -7.81315 -0.408856 0
rtoes -22.5482 0 0
lowerback -7.00597 1.11821 3.02431
upperback -1.15474 1.11974 3.24376
thorax 2.74035 0.578454 1.78076
lowerneck -19.9417 -4.73648 -12.3181
upperneck 15.4296 -6.08357 15.4887
head 9.02497 -2.03254 6.60806
lclavicle 2.10479e-014 1.32096e-014 0
lhumerus -40.6679 -6.55654 89.4421
lradius 26.4733 0 0
lwrist 4.48207 0 0
lhand -12.1362 -25.481 0
lfingers 7.12502 0 0
lthumb 13.9257 4.03106 0
rclavicle 2.10479e-014 1.32096e-014 0
rhumerus -42.3145 19.7131 -90.0671
rradius 59.4471 0 0
rwrist -29.6242 0 0
rhand -31.1443 -29.2198 0
rfingers 7.12502 0 0
rthumb -4.4224 -59.1491 0
23
root 7.81422 15.8061 -33.603 7.46066 -5.25281 -6.2624
lfemur -40.7942 5.27798 -10.8028
ltibia 29.1577 0 0
lfoot -12.1487 10.706 0
ltoes -12.3196 0 0
rfemur 10.3387 6.29108 30.6894
rtibia 7.00252 0 0
rfoot -8.18521 -0.428326 0
rtoes -23.6219 0 0
lowerback -7.13487 1.16244 3.1236
upperback -1.1374 1.16424 3.27646
thorax 2.8306 0.601427 1.76523
lowerneck -20.0028 -4.71564 -12.2695
upperneck 15.5129 -6.0575 15.4204
head 9.05521 -2.02067 6.58129
lclavicle 2.17485e-014 1.30813e-014 0
lhumerus -40.8937 -6.72692 89.5939
lradius 26.4289 0 0
lwrist 4.34762 0 0
lhand -12.0808 -25.5982 0
lfingers 7.12502 0 0
lthumb 13.9791 3.91034 0
rclavicle 2.17485e-014 1.30813e-014 0
rhumerus -42.4834 19.8206 -90.3511
rradius 59.6017 0 0
rwrist -29.6744 0 0
rhand -31.0464 -29.3849 0
rfingers 7.12502 0 0
rthumb -4.32782 -59.3165 0
24
root 7.83005 15.7975 -33.4608 7.47643 -5.55134 -6.38034
lfemur -40.7989 5.22596 -10.5506
ltibia 28.4871 0 0
lfoot -12.0364 10.8133 0
ltoes -12.341 0 0
rfemur 11.2585 6.36219 30.7157
rtibia 6.22446 0 0
rfoot -8.55726 -0.447795 0
rtoes -24.6956 0 0
lowerback -7.26377 1.20667 3.22288
upperback -1.12006 1.20874 3.30916
thorax 2.92086 0.624399 1.74969
lowerneck -20.0639 -4.6948 -12.221
upperneck 15.5963 -6.03143 15.352
head 9.08545 -2.00879 6.55452
lclavicle 2.24491e-014 1.29531e-014 0
lhumerus -41.1194 -6.8973 89.7457
lradius 26.3845 0 0
lwrist 4.21317 0 0
lhand -12.0254 -25.7153 0
lfingers 7.12502 0 0
lthumb 14.0325 3.78961 0
rclavicle 2.24491e-014 1.29531e-014 0
rhumerus -42.6522 19.9281 -90.6351
rradius 59.7564 0 0
rwrist -29.7246 0 0
rhand -30.9484 -29.5501 0
rfingers 7.12502 0 0
rthumb -4.23323 -59.4839 0
25
root 7.84588 15.789 -33.3185 7.49221 -5.84987 -6.49828
lfemur -40.8037 5.17393 -10.2984
ltibia 27.8165 0 0
lfoot -11.9242 10.9205 0
ltoes -12.3624 0 0
rfemur 12.1784 6.43331 30.742
rtibia 5.44641 0 0
rfoot -8.92932 -0.467265 0
rtoes -25.7693 0 0
lowerback -7.39267 1.2509 3.32216
upperback -1.10272 1.25324 3.34187
thorax 3.01111 0.647372 1.73415
lowerneck -20.1251 -4.67396 -12.1724
upperneck 15.6796 -6.00536 15.2837
head 9.11568 -1.99692 6.52775
lclavicle 2.31496e-014 1.28248e-014 0
lhumerus -41.3452 -7.06768 89.8975
lradius 26.3401 0 0
lwrist 4.07872 0 0
lhand -11.9699 -25.8324 0
lfingers 7.12502 0 0
lthumb 14.0859 3.66889 0
rclavicle 2.31496e-014 1.28248e-014 0
rhumerus -42.8211 20.0356 -90.9191
rradius 59.9111 0 0
rwrist -29.7749 0 0
rhand -30.8504 -29.7152 0
rfingers 7.12502 0 0
rthumb -4.13865 -59.6512 0
